<svg width="40" height="41" viewBox="0 0 40 41" fill="none" xmlns="http://www.w3.org/2000/svg">
<path d="M40 20.7466C40 31.7923 31.0457 40.7466 20 40.7466C8.9543 40.7466 0 31.7923 0 20.7466C0 9.70089 8.9543 0.746582 20 0.746582C31.0457 0.746582 40 9.70089 40 20.7466Z" fill="white"/>
<path d="M36.5 20.7466C36.5 29.8593 29.1127 37.2466 20 37.2466C10.8873 37.2466 3.5 29.8593 3.5 20.7466C3.5 11.6339 10.8873 4.24658 20 4.24658C29.1127 4.24658 36.5 11.6339 36.5 20.7466Z" fill="#4E68F2"/>
<path d="M17.3154 26.6914H19.5889C21.5498 26.6914 23.042 26.1797 24.0654 25.1562C25.0889 24.125 25.6006 22.625 25.6006 20.6562C25.6006 18.5469 25.0732 17.0156 24.0186 16.0625C22.9639 15.1016 21.374 14.6211 19.249 14.6211H17.3154V26.6914ZM14.1396 29.2344V12.0664H19.1084C20.6084 12.0664 21.9521 12.2383 23.1396 12.582C24.3271 12.9258 25.3467 13.4453 26.1982 14.1406C27.0576 14.8281 27.7139 15.7188 28.167 16.8125C28.6279 17.8984 28.8584 19.1562 28.8584 20.5859C28.8584 23.3594 28.0225 25.4961 26.3506 26.9961C24.6787 28.4883 22.3623 29.2344 19.4014 29.2344H14.1396Z" fill="white"/>
</svg>
