<svg width="82" height="82" viewBox="0 0 82 82" fill="none" xmlns="http://www.w3.org/2000/svg">
<circle cx="41" cy="41" r="41" fill="#391F85"/>
<path d="M20.68 54.1668L38.6602 36.1865C39.9692 38.8192 42.1023 40.9524 44.735 42.2614L26.7548 60.2417C26.3559 60.6406 25.8824 60.957 25.3612 61.1729C24.8401 61.3887 24.2815 61.4998 23.7174 61.4998C23.1533 61.4998 22.5947 61.3887 22.0736 61.1729C21.5524 60.957 21.0789 60.6406 20.68 60.2417C20.2811 59.8428 19.9647 59.3693 19.7489 58.8481C19.533 58.327 19.4219 57.7684 19.4219 57.2043C19.4219 56.6402 19.533 56.0816 19.7488 55.5604C19.9647 55.0393 20.2811 54.5657 20.68 54.1668ZM53.4417 20.5643C53.7905 20.2155 53.6931 19.807 53.2124 19.6962C50.9483 19.1724 48.5752 19.4 46.4519 20.3445C44.3286 21.289 42.5705 22.8991 41.4434 24.9315C40.3163 26.9638 39.8815 29.3078 40.2046 31.6091C40.5278 33.9105 41.5914 36.044 43.2347 37.6873C44.8779 39.3306 47.0115 40.3942 49.3128 40.7173C51.6142 41.0405 53.9581 40.6056 55.9904 39.4785C58.0227 38.3514 59.6328 36.5932 60.5772 34.4699C61.5217 32.3466 61.7493 29.9734 61.2255 27.7093C61.1148 27.2286 60.7062 27.1313 60.3574 27.4801L54.0367 33.8008C53.8366 33.9803 53.597 34.1101 53.3374 34.1797C53.0778 34.2493 52.8054 34.2566 52.5424 34.2012L48.8136 33.2021C48.5581 33.1186 48.3259 32.976 48.1359 32.7859C47.9458 32.5959 47.8032 32.3637 47.7197 32.1082L46.7206 28.3793C46.6651 28.1163 46.6725 27.844 46.7421 27.5843C46.8117 27.3247 46.9415 27.0851 47.121 26.8851L53.4417 20.5643Z" fill="white"/>
</svg>
