<svg width="350" height="265" viewBox="0 0 350 265" fill="none" xmlns="http://www.w3.org/2000/svg">
<rect x="94.7944" y="175.713" width="41.2132" height="45.9686" fill="#FCC8B1"/>
<rect x="193.455" y="23.5408" width="40.7273" height="198.545" fill="#AA1D1D"/>
<line x1="28.2192" y1="221.182" x2="304.031" y2="221.182" stroke="black"/>
<path d="M27.4268 221.682L27.4268 23.5411" stroke="black"/>
<path d="M96.2183 234.413C96.9917 234.413 97.5972 234.715 98.0347 235.321C98.4722 235.922 98.6909 236.749 98.6909 237.799C98.6909 238.881 98.4644 239.719 98.0112 240.313C97.562 240.907 96.9487 241.204 96.1714 241.204C95.4019 241.204 94.7983 240.924 94.3608 240.366H94.2378L93.939 241.086H92.5737V231.969H94.3608V234.09C94.3608 234.36 94.3374 234.792 94.2905 235.385H94.3608C94.7788 234.737 95.3979 234.413 96.2183 234.413ZM95.644 235.842C95.2026 235.842 94.8804 235.979 94.6772 236.252C94.4741 236.522 94.3687 236.969 94.3608 237.594V237.788C94.3608 238.491 94.4644 238.995 94.6714 239.299C94.8823 239.604 95.2144 239.756 95.6675 239.756C96.0347 239.756 96.3257 239.588 96.5405 239.252C96.7593 238.913 96.8687 238.42 96.8687 237.776C96.8687 237.131 96.7593 236.649 96.5405 236.329C96.3218 236.004 96.0229 235.842 95.644 235.842ZM102.88 235.684C102.501 235.684 102.205 235.805 101.99 236.047C101.775 236.286 101.652 236.625 101.621 237.067H104.128C104.121 236.625 104.005 236.286 103.783 236.047C103.56 235.805 103.259 235.684 102.88 235.684ZM103.132 241.204C102.078 241.204 101.253 240.913 100.66 240.331C100.066 239.749 99.769 238.924 99.769 237.858C99.769 236.76 100.042 235.913 100.589 235.315C101.14 234.713 101.9 234.413 102.869 234.413C103.794 234.413 104.515 234.676 105.031 235.204C105.546 235.731 105.804 236.459 105.804 237.389V238.256H101.58C101.599 238.764 101.75 239.161 102.031 239.446C102.312 239.731 102.707 239.874 103.214 239.874C103.609 239.874 103.982 239.833 104.333 239.75C104.685 239.668 105.052 239.538 105.435 239.358V240.741C105.123 240.897 104.789 241.012 104.433 241.086C104.078 241.165 103.644 241.204 103.132 241.204ZM110.878 235.877H109.332V241.086H107.544V235.877H106.56V235.016L107.544 234.536V234.055C107.544 233.309 107.728 232.764 108.095 232.42C108.462 232.077 109.05 231.905 109.859 231.905C110.476 231.905 111.025 231.997 111.505 232.18L111.048 233.493C110.689 233.379 110.357 233.323 110.052 233.323C109.798 233.323 109.615 233.399 109.501 233.551C109.388 233.7 109.332 233.891 109.332 234.125V234.536H110.878V235.877ZM113.333 237.799C113.333 238.448 113.439 238.938 113.65 239.27C113.865 239.602 114.212 239.768 114.693 239.768C115.169 239.768 115.511 239.604 115.718 239.276C115.929 238.944 116.035 238.452 116.035 237.799C116.035 237.151 115.929 236.665 115.718 236.34C115.507 236.016 115.162 235.854 114.681 235.854C114.205 235.854 113.861 236.016 113.65 236.34C113.439 236.661 113.333 237.147 113.333 237.799ZM117.863 237.799C117.863 238.866 117.582 239.7 117.019 240.301C116.457 240.903 115.673 241.204 114.669 241.204C114.041 241.204 113.486 241.067 113.005 240.793C112.525 240.516 112.156 240.12 111.898 239.604C111.64 239.088 111.511 238.487 111.511 237.799C111.511 236.729 111.791 235.897 112.349 235.303C112.908 234.709 113.693 234.413 114.705 234.413C115.333 234.413 115.888 234.549 116.369 234.823C116.849 235.096 117.218 235.489 117.476 236C117.734 236.512 117.863 237.112 117.863 237.799ZM122.996 234.413C123.238 234.413 123.439 234.43 123.599 234.465L123.464 236.141C123.32 236.102 123.144 236.083 122.937 236.083C122.367 236.083 121.921 236.229 121.601 236.522C121.285 236.815 121.126 237.225 121.126 237.752V241.086H119.339V234.536H120.693L120.957 235.637H121.044C121.248 235.27 121.521 234.975 121.865 234.752C122.212 234.526 122.589 234.413 122.996 234.413ZM127.501 235.684C127.123 235.684 126.826 235.805 126.611 236.047C126.396 236.286 126.273 236.625 126.242 237.067H128.75C128.742 236.625 128.626 236.286 128.404 236.047C128.181 235.805 127.88 235.684 127.501 235.684ZM127.753 241.204C126.699 241.204 125.875 240.913 125.281 240.331C124.687 239.749 124.39 238.924 124.39 237.858C124.39 236.76 124.664 235.913 125.21 235.315C125.761 234.713 126.521 234.413 127.49 234.413C128.416 234.413 129.136 234.676 129.652 235.204C130.167 235.731 130.425 236.459 130.425 237.389V238.256H126.201C126.22 238.764 126.371 239.161 126.652 239.446C126.933 239.731 127.328 239.874 127.835 239.874C128.23 239.874 128.603 239.833 128.955 239.75C129.306 239.668 129.673 239.538 130.056 239.358V240.741C129.744 240.897 129.41 241.012 129.054 241.086C128.699 241.165 128.265 241.204 127.753 241.204Z" fill="black"/>
<path d="M203.643 241.086L203.297 240.196H203.25C202.95 240.575 202.639 240.838 202.319 240.987C202.002 241.131 201.588 241.204 201.077 241.204C200.448 241.204 199.952 241.024 199.588 240.665C199.229 240.305 199.049 239.793 199.049 239.129C199.049 238.434 199.292 237.922 199.776 237.594C200.264 237.262 200.999 237.079 201.979 237.043L203.116 237.008V236.721C203.116 236.057 202.776 235.725 202.096 235.725C201.573 235.725 200.958 235.883 200.25 236.2L199.659 234.993C200.413 234.598 201.249 234.401 202.167 234.401C203.045 234.401 203.719 234.592 204.188 234.975C204.657 235.358 204.891 235.94 204.891 236.721V241.086H203.643ZM203.116 238.051L202.424 238.075C201.905 238.09 201.518 238.184 201.264 238.356C201.01 238.528 200.883 238.79 200.883 239.141C200.883 239.645 201.172 239.897 201.75 239.897C202.165 239.897 202.495 239.778 202.741 239.54C202.991 239.301 203.116 238.985 203.116 238.59V238.051ZM210.358 235.877H208.811V241.086H207.024V235.877H206.04V235.016L207.024 234.536V234.055C207.024 233.309 207.208 232.764 207.575 232.42C207.942 232.077 208.53 231.905 209.338 231.905C209.956 231.905 210.504 231.997 210.985 232.18L210.528 233.493C210.168 233.379 209.836 233.323 209.532 233.323C209.278 233.323 209.094 233.399 208.981 233.551C208.868 233.7 208.811 233.891 208.811 234.125V234.536H210.358V235.877ZM214.149 239.78C214.461 239.78 214.836 239.711 215.274 239.575V240.905C214.829 241.104 214.282 241.204 213.633 241.204C212.918 241.204 212.397 241.024 212.069 240.665C211.745 240.301 211.583 239.758 211.583 239.036V235.877H210.727V235.122L211.711 234.524L212.227 233.141H213.37V234.536H215.204V235.877H213.37V239.036C213.37 239.29 213.44 239.477 213.581 239.598C213.725 239.719 213.915 239.78 214.149 239.78ZM219.317 235.684C218.938 235.684 218.641 235.805 218.426 236.047C218.211 236.286 218.088 236.625 218.057 237.067H220.565C220.557 236.625 220.442 236.286 220.219 236.047C219.997 235.805 219.696 235.684 219.317 235.684ZM219.569 241.204C218.514 241.204 217.69 240.913 217.096 240.331C216.502 239.749 216.206 238.924 216.206 237.858C216.206 236.76 216.479 235.913 217.026 235.315C217.577 234.713 218.336 234.413 219.305 234.413C220.231 234.413 220.952 234.676 221.467 235.204C221.983 235.731 222.241 236.459 222.241 237.389V238.256H218.016C218.036 238.764 218.186 239.161 218.467 239.446C218.749 239.731 219.143 239.874 219.651 239.874C220.045 239.874 220.418 239.833 220.77 239.75C221.122 239.668 221.489 239.538 221.872 239.358V240.741C221.559 240.897 221.225 241.012 220.87 241.086C220.514 241.165 220.081 241.204 219.569 241.204ZM227.35 234.413C227.592 234.413 227.793 234.43 227.954 234.465L227.819 236.141C227.674 236.102 227.499 236.083 227.292 236.083C226.721 236.083 226.276 236.229 225.956 236.522C225.639 236.815 225.481 237.225 225.481 237.752V241.086H223.694V234.536H225.047L225.311 235.637H225.399C225.602 235.27 225.875 234.975 226.219 234.752C226.567 234.526 226.944 234.413 227.35 234.413Z" fill="black"/>
<path d="M314.243 218.144C314.555 218.144 314.93 218.075 315.368 217.938V219.269C314.922 219.468 314.375 219.567 313.727 219.567C313.012 219.567 312.491 219.388 312.163 219.028C311.838 218.665 311.676 218.122 311.676 217.399V214.241H310.821V213.485L311.805 212.888L312.321 211.505H313.463V212.899H315.297V214.241H313.463V217.399C313.463 217.653 313.534 217.841 313.674 217.962C313.819 218.083 314.008 218.144 314.243 218.144ZM316.622 211.206C316.622 210.624 316.946 210.333 317.594 210.333C318.243 210.333 318.567 210.624 318.567 211.206C318.567 211.483 318.485 211.7 318.321 211.856C318.161 212.009 317.918 212.085 317.594 212.085C316.946 212.085 316.622 211.792 316.622 211.206ZM318.485 219.45H316.698V212.899H318.485V219.45ZM326.231 219.45H324.444V215.624C324.444 215.151 324.364 214.798 324.204 214.563C324.047 214.325 323.799 214.206 323.459 214.206C323.002 214.206 322.67 214.374 322.463 214.71C322.256 215.046 322.153 215.599 322.153 216.368V219.45H320.366V212.899H321.731L321.971 213.737H322.071C322.247 213.437 322.5 213.202 322.833 213.034C323.165 212.862 323.545 212.776 323.975 212.776C324.956 212.776 325.62 213.097 325.967 213.737H326.125C326.301 213.433 326.559 213.196 326.899 213.028C327.243 212.86 327.629 212.776 328.059 212.776C328.801 212.776 329.362 212.968 329.741 213.351C330.124 213.729 330.315 214.339 330.315 215.179V219.45H328.522V215.624C328.522 215.151 328.442 214.798 328.282 214.563C328.125 214.325 327.877 214.206 327.538 214.206C327.1 214.206 326.772 214.362 326.553 214.675C326.338 214.987 326.231 215.483 326.231 216.163V219.45ZM334.868 214.048C334.489 214.048 334.192 214.169 333.977 214.411C333.762 214.649 333.639 214.989 333.608 215.431H336.116C336.108 214.989 335.993 214.649 335.77 214.411C335.547 214.169 335.247 214.048 334.868 214.048ZM335.12 219.567C334.065 219.567 333.241 219.276 332.647 218.694C332.053 218.112 331.756 217.288 331.756 216.222C331.756 215.124 332.03 214.276 332.577 213.679C333.127 213.077 333.887 212.776 334.856 212.776C335.782 212.776 336.502 213.04 337.018 213.567C337.534 214.095 337.792 214.823 337.792 215.753V216.62H333.567C333.586 217.128 333.737 217.524 334.018 217.81C334.299 218.095 334.694 218.237 335.202 218.237C335.596 218.237 335.969 218.196 336.321 218.114C336.672 218.032 337.04 217.901 337.422 217.722V219.104C337.11 219.261 336.776 219.376 336.42 219.45C336.065 219.528 335.631 219.567 335.12 219.567Z" fill="black"/>
<path d="M3.65039 6.22949C3.27148 6.22949 2.97461 6.35059 2.75977 6.59277C2.54492 6.83105 2.42188 7.1709 2.39062 7.6123H4.89844C4.89062 7.1709 4.77539 6.83105 4.55273 6.59277C4.33008 6.35059 4.0293 6.22949 3.65039 6.22949ZM3.90234 11.749C2.84766 11.749 2.02344 11.458 1.42969 10.876C0.835938 10.2939 0.539062 9.46973 0.539062 8.40332C0.539062 7.30566 0.8125 6.45801 1.35938 5.86035C1.91016 5.25879 2.66992 4.95801 3.63867 4.95801C4.56445 4.95801 5.28516 5.22168 5.80078 5.74902C6.31641 6.27637 6.57422 7.00488 6.57422 7.93457V8.80176H2.34961C2.36914 9.30957 2.51953 9.70605 2.80078 9.99121C3.08203 10.2764 3.47656 10.4189 3.98438 10.4189C4.37891 10.4189 4.75195 10.3779 5.10352 10.2959C5.45508 10.2139 5.82227 10.083 6.20508 9.90332V11.2861C5.89258 11.4424 5.55859 11.5576 5.20312 11.6318C4.84766 11.71 4.41406 11.749 3.90234 11.749ZM11.6484 6.42285H10.1016V11.6318H8.31445V6.42285H7.33008V5.56152L8.31445 5.08105V4.60059C8.31445 3.85449 8.49805 3.30957 8.86523 2.96582C9.23242 2.62207 9.82031 2.4502 10.6289 2.4502C11.2461 2.4502 11.7949 2.54199 12.2754 2.72559L11.8184 4.03809C11.459 3.9248 11.127 3.86816 10.8223 3.86816C10.5684 3.86816 10.3848 3.94434 10.2715 4.09668C10.1582 4.24512 10.1016 4.43652 10.1016 4.6709V5.08105H11.6484V6.42285ZM16.2949 6.42285H14.748V11.6318H12.9609V6.42285H11.9766V5.56152L12.9609 5.08105V4.60059C12.9609 3.85449 13.1445 3.30957 13.5117 2.96582C13.8789 2.62207 14.4668 2.4502 15.2754 2.4502C15.8926 2.4502 16.4414 2.54199 16.9219 2.72559L16.4648 4.03809C16.1055 3.9248 15.7734 3.86816 15.4688 3.86816C15.2148 3.86816 15.0312 3.94434 14.918 4.09668C14.8047 4.24512 14.748 4.43652 14.748 4.6709V5.08105H16.2949V6.42285ZM18.7441 8.34473C18.7441 8.99316 18.8496 9.4834 19.0605 9.81543C19.2754 10.1475 19.623 10.3135 20.1035 10.3135C20.5801 10.3135 20.9219 10.1494 21.1289 9.82129C21.3398 9.48926 21.4453 8.99707 21.4453 8.34473C21.4453 7.69629 21.3398 7.20996 21.1289 6.88574C20.918 6.56152 20.5723 6.39941 20.0918 6.39941C19.6152 6.39941 19.2715 6.56152 19.0605 6.88574C18.8496 7.20605 18.7441 7.69238 18.7441 8.34473ZM23.2734 8.34473C23.2734 9.41113 22.9922 10.2451 22.4297 10.8467C21.8672 11.4482 21.084 11.749 20.0801 11.749C19.4512 11.749 18.8965 11.6123 18.416 11.3389C17.9355 11.0615 17.5664 10.665 17.3086 10.1494C17.0508 9.63379 16.9219 9.03223 16.9219 8.34473C16.9219 7.27441 17.2012 6.44238 17.7598 5.84863C18.3184 5.25488 19.1035 4.95801 20.1152 4.95801C20.7441 4.95801 21.2988 5.09473 21.7793 5.36816C22.2598 5.6416 22.6289 6.03418 22.8867 6.5459C23.1445 7.05762 23.2734 7.65723 23.2734 8.34473ZM28.4062 4.95801C28.6484 4.95801 28.8496 4.97559 29.0098 5.01074L28.875 6.68652C28.7305 6.64746 28.5547 6.62793 28.3477 6.62793C27.7773 6.62793 27.332 6.77441 27.0117 7.06738C26.6953 7.36035 26.5371 7.77051 26.5371 8.29785V11.6318H24.75V5.08105H26.1035L26.3672 6.18262H26.4551C26.6582 5.81543 26.9316 5.52051 27.2754 5.29785C27.623 5.07129 28 4.95801 28.4062 4.95801ZM32.959 10.3252C33.2715 10.3252 33.6465 10.2568 34.084 10.1201V11.4502C33.6387 11.6494 33.0918 11.749 32.4434 11.749C31.7285 11.749 31.207 11.5693 30.8789 11.21C30.5547 10.8467 30.3926 10.3037 30.3926 9.58105V6.42285H29.5371V5.66699L30.5215 5.06934L31.0371 3.68652H32.1797V5.08105H34.0137V6.42285H32.1797V9.58105C32.1797 9.83496 32.25 10.0225 32.3906 10.1436C32.5352 10.2646 32.7246 10.3252 32.959 10.3252Z" fill="black"/>
<path d="M9.95264 169.98C9.95264 170.754 9.67334 171.363 9.11475 171.808C8.56006 172.254 7.78662 172.476 6.79443 172.476C5.88037 172.476 5.07178 172.304 4.36865 171.961V170.273C4.94678 170.531 5.43506 170.713 5.8335 170.818C6.23584 170.924 6.60303 170.976 6.93506 170.976C7.3335 170.976 7.63818 170.9 7.84912 170.748C8.06396 170.595 8.17139 170.369 8.17139 170.068C8.17139 169.9 8.12451 169.752 8.03076 169.623C7.93701 169.49 7.79834 169.363 7.61475 169.242C7.43506 169.121 7.06592 168.927 6.50732 168.662C5.98389 168.416 5.59131 168.179 5.32959 167.953C5.06787 167.726 4.85889 167.463 4.70264 167.162C4.54639 166.861 4.46826 166.51 4.46826 166.107C4.46826 165.349 4.72412 164.754 5.23584 164.32C5.75146 163.886 6.4624 163.67 7.36865 163.67C7.81396 163.67 8.23779 163.722 8.64014 163.828C9.04639 163.933 9.47021 164.082 9.91162 164.273L9.32568 165.685C8.86865 165.498 8.48975 165.367 8.18896 165.293C7.89209 165.219 7.59912 165.181 7.31006 165.181C6.96631 165.181 6.70264 165.261 6.51904 165.422C6.33545 165.582 6.24365 165.791 6.24365 166.049C6.24365 166.209 6.28076 166.349 6.35498 166.47C6.4292 166.588 6.54639 166.703 6.70654 166.816C6.87061 166.926 7.25537 167.125 7.86084 167.414C8.66162 167.797 9.21045 168.181 9.50732 168.568C9.8042 168.951 9.95264 169.422 9.95264 169.98Z" fill="black"/>
<path d="M5.97754 111.268L3.91504 104.547H3.8623C3.93652 105.915 3.97363 106.827 3.97363 107.284V111.268H2.35059V102.702H4.82324L6.85059 109.252H6.88574L9.03613 102.702H11.5088V111.268H9.81543V107.213C9.81543 107.022 9.81738 106.801 9.82129 106.551C9.8291 106.301 9.85645 105.637 9.90332 104.559H9.85059L7.6416 111.268H5.97754Z" fill="black"/>
<path d="M7.44189 48.9045V40.3381H9.2583V47.4045H12.7329V48.9045H7.44189Z" fill="black"/>
<line x1="28" y1="176.768" x2="20.3636" y2="176.768" stroke="black"/>
<line x1="28" y1="114.405" x2="20.3636" y2="114.405" stroke="black"/>
<line x1="28" y1="54.5864" x2="20.3636" y2="54.5864" stroke="black"/>
</svg>
