<svg width="80" height="80" viewBox="0 0 80 80" fill="none" xmlns="http://www.w3.org/2000/svg">
<path d="M80 40C80 62.0914 62.0914 80 40 80C17.9086 80 0 62.0914 0 40C0 17.9086 17.9086 0 40 0C62.0914 0 80 17.9086 80 40Z" fill="white"/>
<path d="M73 40C73 58.2254 58.2254 73 40 73C21.7746 73 7 58.2254 7 40C7 21.7746 21.7746 7 40 7C58.2254 7 73 21.7746 73 40Z" fill="#4E68F2"/>
<path d="M34.6299 51.8899H39.1768C43.0986 51.8899 46.083 50.8665 48.1299 48.8196C50.1768 46.7571 51.2002 43.7571 51.2002 39.8196C51.2002 35.6008 50.1455 32.5383 48.0361 30.6321C45.9268 28.7102 42.7471 27.7493 38.4971 27.7493H34.6299V51.8899ZM28.2783 56.9758V22.6399H38.2158C41.2158 22.6399 43.9033 22.9836 46.2783 23.6711C48.6533 24.3586 50.6924 25.3977 52.3955 26.7883C54.1143 28.1633 55.4268 29.9446 56.333 32.1321C57.2549 34.304 57.7158 36.8196 57.7158 39.679C57.7158 45.2258 56.0439 49.4993 52.7002 52.4993C49.3564 55.4836 44.7236 56.9758 38.8018 56.9758H28.2783Z" fill="white"/>
</svg>
