<svg width="80" height="80" viewBox="0 0 80 80" fill="none" xmlns="http://www.w3.org/2000/svg">
<circle cx="40" cy="40" r="40" fill="#AC97FF"/>
<path d="M39.8432 61.7524C40.063 61.7644 40.2842 61.7714 40.507 61.7714C40.7297 61.7714 40.951 61.7644 41.1709 61.7524C52.9307 61.3538 62.1551 50.5541 62.549 50.0857C62.7015 49.9045 62.7854 49.6743 62.7855 49.4362C62.7856 49.1981 62.7019 48.9678 62.5495 48.7865C62.1556 48.3177 52.9307 37.5175 41.1709 37.1188C40.951 37.1068 40.7298 37.0998 40.507 37.0998C40.2842 37.0998 40.063 37.1068 39.8432 37.1188C28.0833 37.5174 18.8584 48.3177 18.4645 48.7865C18.3121 48.9678 18.2284 49.1981 18.2285 49.4362C18.2286 49.6743 18.3124 49.9045 18.465 50.0857C18.8589 50.5541 28.0834 61.3538 39.8432 61.7524ZM40.507 39.1043C42.5257 39.1043 44.4991 39.7101 46.1776 40.8453C47.8562 41.9805 49.1644 43.594 49.937 45.4818C50.7096 47.3696 50.9118 49.4468 50.518 51.4509C50.1242 53.455 49.1521 55.2959 47.7247 56.7408C46.2973 58.1857 44.4786 59.1697 42.4987 59.5684C40.5188 59.9671 38.4665 59.7625 36.6015 58.9806C34.7364 58.1987 33.1423 56.8745 32.0207 55.1756C30.8991 53.4767 30.3004 51.4792 30.3004 49.4359C30.3035 46.6968 31.3798 44.0708 33.2932 42.134C35.2066 40.1971 37.8009 39.1076 40.507 39.1043ZM33.6613 49.4358C33.6609 47.9147 34.1579 46.4362 35.0747 45.2309C34.915 45.7961 34.9348 46.3977 35.1313 46.9509C35.3279 47.504 35.6912 47.9806 36.17 48.3133C36.6488 48.6459 37.2187 48.8179 37.7993 48.8048C38.3799 48.7916 38.9417 48.5941 39.4054 48.2401C39.869 47.8861 40.211 47.3936 40.3829 46.8322C40.5549 46.2707 40.5481 45.6687 40.3636 45.1114C40.1791 44.554 39.8262 44.0695 39.3547 43.7262C38.8833 43.383 38.3172 43.1984 37.7365 43.1986C37.6622 43.1986 37.5894 43.2041 37.5166 43.2099C38.8528 42.5538 40.3637 42.3556 41.821 42.6453C43.2783 42.935 44.6029 43.6968 45.5947 44.8157C46.5866 45.9346 47.1917 47.3498 47.3188 48.8476C47.446 50.3453 47.0881 51.8442 46.2994 53.118C45.5106 54.3917 44.3338 55.3711 42.9467 55.9081C41.5595 56.4451 40.0374 56.5107 38.6102 56.0949C37.183 55.679 35.9282 54.8044 35.0354 53.6031C34.1426 52.4018 33.6603 50.939 33.6613 49.4358ZM39.0218 19.2397H41.9923V28.7059H39.0218V19.2397ZM56.9867 22.4365L59.7817 23.4549L56.4196 32.8792L53.6256 31.8579L56.9867 22.4365ZM24.5943 32.8792L21.2324 23.4552L24.0269 22.4363L27.3883 31.8579L24.5943 32.8792Z" fill="white"/>
</svg>
