<svg width="275" height="207" viewBox="0 0 275 207" fill="none" xmlns="http://www.w3.org/2000/svg">
<rect x="74" y="138" width="33" height="36" fill="#FCC8B1"/>
<rect x="151.7" y="41.6641" width="32.3818" height="132.018" fill="#AA1D1D"/>
<line x1="22.1728" y1="173.182" x2="238.882" y2="173.182" stroke="black"/>
<path d="M21.55 173.682L21.55 17.9998" stroke="black"/>
<path d="M76.582 186.326C77.3555 186.326 77.9609 186.629 78.3984 187.234C78.8359 187.836 79.0547 188.662 79.0547 189.713C79.0547 190.795 78.8281 191.633 78.375 192.227C77.9258 192.82 77.3125 193.117 76.5352 193.117C75.7656 193.117 75.1621 192.838 74.7246 192.279H74.6016L74.3027 193H72.9375V183.883H74.7246V186.004C74.7246 186.273 74.7012 186.705 74.6543 187.299H74.7246C75.1426 186.65 75.7617 186.326 76.582 186.326ZM76.0078 187.756C75.5664 187.756 75.2441 187.893 75.041 188.166C74.8379 188.436 74.7324 188.883 74.7246 189.508V189.701C74.7246 190.404 74.8281 190.908 75.0352 191.213C75.2461 191.518 75.5781 191.67 76.0312 191.67C76.3984 191.67 76.6895 191.502 76.9043 191.166C77.123 190.826 77.2324 190.334 77.2324 189.689C77.2324 189.045 77.123 188.562 76.9043 188.242C76.6855 187.918 76.3867 187.756 76.0078 187.756ZM83.2441 187.598C82.8652 187.598 82.5684 187.719 82.3535 187.961C82.1387 188.199 82.0156 188.539 81.9844 188.98H84.4922C84.4844 188.539 84.3691 188.199 84.1465 187.961C83.9238 187.719 83.623 187.598 83.2441 187.598ZM83.4961 193.117C82.4414 193.117 81.6172 192.826 81.0234 192.244C80.4297 191.662 80.1328 190.838 80.1328 189.771C80.1328 188.674 80.4062 187.826 80.9531 187.229C81.5039 186.627 82.2637 186.326 83.2324 186.326C84.1582 186.326 84.8789 186.59 85.3945 187.117C85.9102 187.645 86.168 188.373 86.168 189.303V190.17H81.9434C81.9629 190.678 82.1133 191.074 82.3945 191.359C82.6758 191.645 83.0703 191.787 83.5781 191.787C83.9727 191.787 84.3457 191.746 84.6973 191.664C85.0488 191.582 85.416 191.451 85.7988 191.271V192.654C85.4863 192.811 85.1523 192.926 84.7969 193C84.4414 193.078 84.0078 193.117 83.4961 193.117ZM91.2422 187.791H89.6953V193H87.9082V187.791H86.9238V186.93L87.9082 186.449V185.969C87.9082 185.223 88.0918 184.678 88.459 184.334C88.8262 183.99 89.4141 183.818 90.2227 183.818C90.8398 183.818 91.3887 183.91 91.8691 184.094L91.4121 185.406C91.0527 185.293 90.7207 185.236 90.416 185.236C90.1621 185.236 89.9785 185.312 89.8652 185.465C89.752 185.613 89.6953 185.805 89.6953 186.039V186.449H91.2422V187.791ZM93.6973 189.713C93.6973 190.361 93.8027 190.852 94.0137 191.184C94.2285 191.516 94.5762 191.682 95.0566 191.682C95.5332 191.682 95.875 191.518 96.082 191.189C96.293 190.857 96.3984 190.365 96.3984 189.713C96.3984 189.064 96.293 188.578 96.082 188.254C95.8711 187.93 95.5254 187.768 95.0449 187.768C94.5684 187.768 94.2246 187.93 94.0137 188.254C93.8027 188.574 93.6973 189.061 93.6973 189.713ZM98.2266 189.713C98.2266 190.779 97.9453 191.613 97.3828 192.215C96.8203 192.816 96.0371 193.117 95.0332 193.117C94.4043 193.117 93.8496 192.98 93.3691 192.707C92.8887 192.43 92.5195 192.033 92.2617 191.518C92.0039 191.002 91.875 190.4 91.875 189.713C91.875 188.643 92.1543 187.811 92.7129 187.217C93.2715 186.623 94.0566 186.326 95.0684 186.326C95.6973 186.326 96.252 186.463 96.7324 186.736C97.2129 187.01 97.582 187.402 97.8398 187.914C98.0977 188.426 98.2266 189.025 98.2266 189.713ZM103.359 186.326C103.602 186.326 103.803 186.344 103.963 186.379L103.828 188.055C103.684 188.016 103.508 187.996 103.301 187.996C102.73 187.996 102.285 188.143 101.965 188.436C101.648 188.729 101.49 189.139 101.49 189.666V193H99.7031V186.449H101.057L101.32 187.551H101.408C101.611 187.184 101.885 186.889 102.229 186.666C102.576 186.439 102.953 186.326 103.359 186.326ZM107.865 187.598C107.486 187.598 107.189 187.719 106.975 187.961C106.76 188.199 106.637 188.539 106.605 188.98H109.113C109.105 188.539 108.99 188.199 108.768 187.961C108.545 187.719 108.244 187.598 107.865 187.598ZM108.117 193.117C107.062 193.117 106.238 192.826 105.645 192.244C105.051 191.662 104.754 190.838 104.754 189.771C104.754 188.674 105.027 187.826 105.574 187.229C106.125 186.627 106.885 186.326 107.854 186.326C108.779 186.326 109.5 186.59 110.016 187.117C110.531 187.645 110.789 188.373 110.789 189.303V190.17H106.564C106.584 190.678 106.734 191.074 107.016 191.359C107.297 191.645 107.691 191.787 108.199 191.787C108.594 191.787 108.967 191.746 109.318 191.664C109.67 191.582 110.037 191.451 110.42 191.271V192.654C110.107 192.811 109.773 192.926 109.418 193C109.062 193.078 108.629 193.117 108.117 193.117Z" fill="black"/>
<path d="M161.098 193L160.752 192.109H160.705C160.404 192.488 160.094 192.752 159.773 192.9C159.457 193.045 159.043 193.117 158.531 193.117C157.902 193.117 157.406 192.938 157.043 192.578C156.684 192.219 156.504 191.707 156.504 191.043C156.504 190.348 156.746 189.836 157.23 189.508C157.719 189.176 158.453 188.992 159.434 188.957L160.57 188.922V188.635C160.57 187.971 160.23 187.639 159.551 187.639C159.027 187.639 158.412 187.797 157.705 188.113L157.113 186.906C157.867 186.512 158.703 186.314 159.621 186.314C160.5 186.314 161.174 186.506 161.643 186.889C162.111 187.271 162.346 187.854 162.346 188.635V193H161.098ZM160.57 189.965L159.879 189.988C159.359 190.004 158.973 190.098 158.719 190.27C158.465 190.441 158.338 190.703 158.338 191.055C158.338 191.559 158.627 191.811 159.205 191.811C159.619 191.811 159.949 191.691 160.195 191.453C160.445 191.215 160.57 190.898 160.57 190.504V189.965ZM167.812 187.791H166.266V193H164.479V187.791H163.494V186.93L164.479 186.449V185.969C164.479 185.223 164.662 184.678 165.029 184.334C165.396 183.99 165.984 183.818 166.793 183.818C167.41 183.818 167.959 183.91 168.439 184.094L167.982 185.406C167.623 185.293 167.291 185.236 166.986 185.236C166.732 185.236 166.549 185.312 166.436 185.465C166.322 185.613 166.266 185.805 166.266 186.039V186.449H167.812V187.791ZM171.604 191.693C171.916 191.693 172.291 191.625 172.729 191.488V192.818C172.283 193.018 171.736 193.117 171.088 193.117C170.373 193.117 169.852 192.938 169.523 192.578C169.199 192.215 169.037 191.672 169.037 190.949V187.791H168.182V187.035L169.166 186.438L169.682 185.055H170.824V186.449H172.658V187.791H170.824V190.949C170.824 191.203 170.895 191.391 171.035 191.512C171.18 191.633 171.369 191.693 171.604 191.693ZM176.771 187.598C176.393 187.598 176.096 187.719 175.881 187.961C175.666 188.199 175.543 188.539 175.512 188.98H178.02C178.012 188.539 177.896 188.199 177.674 187.961C177.451 187.719 177.15 187.598 176.771 187.598ZM177.023 193.117C175.969 193.117 175.145 192.826 174.551 192.244C173.957 191.662 173.66 190.838 173.66 189.771C173.66 188.674 173.934 187.826 174.48 187.229C175.031 186.627 175.791 186.326 176.76 186.326C177.686 186.326 178.406 186.59 178.922 187.117C179.438 187.645 179.695 188.373 179.695 189.303V190.17H175.471C175.49 190.678 175.641 191.074 175.922 191.359C176.203 191.645 176.598 191.787 177.105 191.787C177.5 191.787 177.873 191.746 178.225 191.664C178.576 191.582 178.943 191.451 179.326 191.271V192.654C179.014 192.811 178.68 192.926 178.324 193C177.969 193.078 177.535 193.117 177.023 193.117ZM184.805 186.326C185.047 186.326 185.248 186.344 185.408 186.379L185.273 188.055C185.129 188.016 184.953 187.996 184.746 187.996C184.176 187.996 183.73 188.143 183.41 188.436C183.094 188.729 182.936 189.139 182.936 189.666V193H181.148V186.449H182.502L182.766 187.551H182.854C183.057 187.184 183.33 186.889 183.674 186.666C184.021 186.439 184.398 186.326 184.805 186.326Z" fill="black"/>
<path d="M247.697 174.693C248.01 174.693 248.385 174.625 248.822 174.488V175.818C248.377 176.018 247.83 176.117 247.182 176.117C246.467 176.117 245.945 175.938 245.617 175.578C245.293 175.215 245.131 174.672 245.131 173.949V170.791H244.275V170.035L245.26 169.438L245.775 168.055H246.918V169.449H248.752V170.791H246.918V173.949C246.918 174.203 246.988 174.391 247.129 174.512C247.273 174.633 247.463 174.693 247.697 174.693ZM250.076 167.756C250.076 167.174 250.4 166.883 251.049 166.883C251.697 166.883 252.021 167.174 252.021 167.756C252.021 168.033 251.939 168.25 251.775 168.406C251.615 168.559 251.373 168.635 251.049 168.635C250.4 168.635 250.076 168.342 250.076 167.756ZM251.939 176H250.152V169.449H251.939V176ZM259.686 176H257.898V172.174C257.898 171.701 257.818 171.348 257.658 171.113C257.502 170.875 257.254 170.756 256.914 170.756C256.457 170.756 256.125 170.924 255.918 171.26C255.711 171.596 255.607 172.148 255.607 172.918V176H253.82V169.449H255.186L255.426 170.287H255.525C255.701 169.986 255.955 169.752 256.287 169.584C256.619 169.412 257 169.326 257.43 169.326C258.41 169.326 259.074 169.646 259.422 170.287H259.58C259.756 169.982 260.014 169.746 260.354 169.578C260.697 169.41 261.084 169.326 261.514 169.326C262.256 169.326 262.816 169.518 263.195 169.9C263.578 170.279 263.77 170.889 263.77 171.729V176H261.977V172.174C261.977 171.701 261.896 171.348 261.736 171.113C261.58 170.875 261.332 170.756 260.992 170.756C260.555 170.756 260.227 170.912 260.008 171.225C259.793 171.537 259.686 172.033 259.686 172.713V176ZM268.322 170.598C267.943 170.598 267.646 170.719 267.432 170.961C267.217 171.199 267.094 171.539 267.062 171.98H269.57C269.562 171.539 269.447 171.199 269.225 170.961C269.002 170.719 268.701 170.598 268.322 170.598ZM268.574 176.117C267.52 176.117 266.695 175.826 266.102 175.244C265.508 174.662 265.211 173.838 265.211 172.771C265.211 171.674 265.484 170.826 266.031 170.229C266.582 169.627 267.342 169.326 268.311 169.326C269.236 169.326 269.957 169.59 270.473 170.117C270.988 170.645 271.246 171.373 271.246 172.303V173.17H267.021C267.041 173.678 267.191 174.074 267.473 174.359C267.754 174.645 268.148 174.787 268.656 174.787C269.051 174.787 269.424 174.746 269.775 174.664C270.127 174.582 270.494 174.451 270.877 174.271V175.654C270.564 175.811 270.23 175.926 269.875 176C269.52 176.078 269.086 176.117 268.574 176.117Z" fill="black"/>
<path d="M3.65039 5.59766C3.27148 5.59766 2.97461 5.71875 2.75977 5.96094C2.54492 6.19922 2.42188 6.53906 2.39062 6.98047H4.89844C4.89062 6.53906 4.77539 6.19922 4.55273 5.96094C4.33008 5.71875 4.0293 5.59766 3.65039 5.59766ZM3.90234 11.1172C2.84766 11.1172 2.02344 10.8262 1.42969 10.2441C0.835938 9.66211 0.539062 8.83789 0.539062 7.77148C0.539062 6.67383 0.8125 5.82617 1.35938 5.22852C1.91016 4.62695 2.66992 4.32617 3.63867 4.32617C4.56445 4.32617 5.28516 4.58984 5.80078 5.11719C6.31641 5.64453 6.57422 6.37305 6.57422 7.30273V8.16992H2.34961C2.36914 8.67773 2.51953 9.07422 2.80078 9.35938C3.08203 9.64453 3.47656 9.78711 3.98438 9.78711C4.37891 9.78711 4.75195 9.74609 5.10352 9.66406C5.45508 9.58203 5.82227 9.45117 6.20508 9.27148V10.6543C5.89258 10.8105 5.55859 10.9258 5.20312 11C4.84766 11.0781 4.41406 11.1172 3.90234 11.1172ZM11.6484 5.79102H10.1016V11H8.31445V5.79102H7.33008V4.92969L8.31445 4.44922V3.96875C8.31445 3.22266 8.49805 2.67773 8.86523 2.33398C9.23242 1.99023 9.82031 1.81836 10.6289 1.81836C11.2461 1.81836 11.7949 1.91016 12.2754 2.09375L11.8184 3.40625C11.459 3.29297 11.127 3.23633 10.8223 3.23633C10.5684 3.23633 10.3848 3.3125 10.2715 3.46484C10.1582 3.61328 10.1016 3.80469 10.1016 4.03906V4.44922H11.6484V5.79102ZM16.2949 5.79102H14.748V11H12.9609V5.79102H11.9766V4.92969L12.9609 4.44922V3.96875C12.9609 3.22266 13.1445 2.67773 13.5117 2.33398C13.8789 1.99023 14.4668 1.81836 15.2754 1.81836C15.8926 1.81836 16.4414 1.91016 16.9219 2.09375L16.4648 3.40625C16.1055 3.29297 15.7734 3.23633 15.4688 3.23633C15.2148 3.23633 15.0312 3.3125 14.918 3.46484C14.8047 3.61328 14.748 3.80469 14.748 4.03906V4.44922H16.2949V5.79102ZM18.7441 7.71289C18.7441 8.36133 18.8496 8.85156 19.0605 9.18359C19.2754 9.51562 19.623 9.68164 20.1035 9.68164C20.5801 9.68164 20.9219 9.51758 21.1289 9.18945C21.3398 8.85742 21.4453 8.36523 21.4453 7.71289C21.4453 7.06445 21.3398 6.57812 21.1289 6.25391C20.918 5.92969 20.5723 5.76758 20.0918 5.76758C19.6152 5.76758 19.2715 5.92969 19.0605 6.25391C18.8496 6.57422 18.7441 7.06055 18.7441 7.71289ZM23.2734 7.71289C23.2734 8.7793 22.9922 9.61328 22.4297 10.2148C21.8672 10.8164 21.084 11.1172 20.0801 11.1172C19.4512 11.1172 18.8965 10.9805 18.416 10.707C17.9355 10.4297 17.5664 10.0332 17.3086 9.51758C17.0508 9.00195 16.9219 8.40039 16.9219 7.71289C16.9219 6.64258 17.2012 5.81055 17.7598 5.2168C18.3184 4.62305 19.1035 4.32617 20.1152 4.32617C20.7441 4.32617 21.2988 4.46289 21.7793 4.73633C22.2598 5.00977 22.6289 5.40234 22.8867 5.91406C23.1445 6.42578 23.2734 7.02539 23.2734 7.71289ZM28.4062 4.32617C28.6484 4.32617 28.8496 4.34375 29.0098 4.37891L28.875 6.05469C28.7305 6.01562 28.5547 5.99609 28.3477 5.99609C27.7773 5.99609 27.332 6.14258 27.0117 6.43555C26.6953 6.72852 26.5371 7.13867 26.5371 7.66602V11H24.75V4.44922H26.1035L26.3672 5.55078H26.4551C26.6582 5.18359 26.9316 4.88867 27.2754 4.66602C27.623 4.43945 28 4.32617 28.4062 4.32617ZM32.959 9.69336C33.2715 9.69336 33.6465 9.625 34.084 9.48828V10.8184C33.6387 11.0176 33.0918 11.1172 32.4434 11.1172C31.7285 11.1172 31.207 10.9375 30.8789 10.5781C30.5547 10.2148 30.3926 9.67188 30.3926 8.94922V5.79102H29.5371V5.03516L30.5215 4.4375L31.0371 3.05469H32.1797V4.44922H34.0137V5.79102H32.1797V8.94922C32.1797 9.20312 32.25 9.39062 32.3906 9.51172C32.5352 9.63281 32.7246 9.69336 32.959 9.69336Z" fill="black"/>
<path d="M9.13477 136.621C9.13477 137.395 8.85547 138.004 8.29688 138.449C7.74219 138.895 6.96875 139.117 5.97656 139.117C5.0625 139.117 4.25391 138.945 3.55078 138.602V136.914C4.12891 137.172 4.61719 137.354 5.01562 137.459C5.41797 137.564 5.78516 137.617 6.11719 137.617C6.51562 137.617 6.82031 137.541 7.03125 137.389C7.24609 137.236 7.35352 137.01 7.35352 136.709C7.35352 136.541 7.30664 136.393 7.21289 136.264C7.11914 136.131 6.98047 136.004 6.79688 135.883C6.61719 135.762 6.24805 135.568 5.68945 135.303C5.16602 135.057 4.77344 134.82 4.51172 134.594C4.25 134.367 4.04102 134.104 3.88477 133.803C3.72852 133.502 3.65039 133.15 3.65039 132.748C3.65039 131.99 3.90625 131.395 4.41797 130.961C4.93359 130.527 5.64453 130.311 6.55078 130.311C6.99609 130.311 7.41992 130.363 7.82227 130.469C8.22852 130.574 8.65234 130.723 9.09375 130.914L8.50781 132.326C8.05078 132.139 7.67188 132.008 7.37109 131.934C7.07422 131.859 6.78125 131.822 6.49219 131.822C6.14844 131.822 5.88477 131.902 5.70117 132.062C5.51758 132.223 5.42578 132.432 5.42578 132.689C5.42578 132.85 5.46289 132.99 5.53711 133.111C5.61133 133.229 5.72852 133.344 5.88867 133.457C6.05273 133.566 6.4375 133.766 7.04297 134.055C7.84375 134.438 8.39258 134.822 8.68945 135.209C8.98633 135.592 9.13477 136.062 9.13477 136.621Z" fill="black"/>
<path d="M5.70508 91L3.64258 84.2793H3.58984C3.66406 85.6465 3.70117 86.5586 3.70117 87.0156V91H2.07812V82.4336H4.55078L6.57812 88.9844H6.61328L8.76367 82.4336H11.2363V91H9.54297V86.9453C9.54297 86.7539 9.54492 86.5332 9.54883 86.2832C9.55664 86.0332 9.58398 85.3691 9.63086 84.291H9.57812L7.36914 91H5.70508Z" fill="black"/>
<path d="M6.07812 42V33.4336H7.89453V40.5H11.3691V42H6.07812Z" fill="black"/>
<line x1="22" y1="138.5" x2="16" y2="138.5" stroke="black"/>
<line x1="22" y1="89.5" x2="16" y2="89.5" stroke="black"/>
<line x1="22" y1="42.5" x2="16" y2="42.5" stroke="black"/>
</svg>
